<svg xmlns="http://www.w3.org/2000/svg" viewBox="0 0 240 240" role="img" aria-labelledby="title desc">
  <title id="title">雷属性训练家</title>
  <desc id="desc">像口袋妖怪风格的玩家角色原画</desc>
  <defs>
    <linearGradient id="bg" x1="0" x2="1" y1="0" y2="1">
      <stop offset="0" stop-color="#60a5fa"/>
      <stop offset="1" stop-color="#7c3aed"/>
    </linearGradient>
    <radialGradient id="spark" cx="0.5" cy="0.4" r="0.65">
      <stop offset="0" stop-color="#fde68a" stop-opacity="0.95"/>
      <stop offset="1" stop-color="#facc15" stop-opacity="0"/>
    </radialGradient>
  </defs>
  <rect width="240" height="240" rx="22" fill="url(#bg)"/>
  <circle cx="120" cy="96" r="52" fill="#fef3c7"/>
  <path d="M74 86c9-20 28-32 46-32s39 11 48 32c-3 2-8 4-13 4H87c-5 0-10-2-13-4z" fill="#0f172a"/>
  <path d="M80 178c10-24 30-39 40-39s30 15 40 39" fill="#2563eb"/>
  <path d="M62 205c8-31 30-54 58-54s50 23 58 54" fill="#1e40af"/>
  <circle cx="101" cy="97" r="6" fill="#1f2937"/>
  <circle cx="139" cy="97" r="6" fill="#1f2937"/>
  <path d="M106 118c6 7 22 7 28 0" fill="none" stroke="#f97316" stroke-width="4" stroke-linecap="round"/>
  <circle cx="120" cy="120" r="96" fill="url(#spark)"/>
  <path d="M172 48l10 17 20 4-14 14 3 20-19-9-17 11 2-20-14-15 20-3z" fill="#fde047"/>
  <path d="M44 48l6 10 12 2-8 8 2 12-12-6-10 7 1-12-8-8 12-2z" fill="#fef08a"/>
</svg>
